<svg width="65" height="76" viewBox="0 0 65 76" fill="none" xmlns="http://www.w3.org/2000/svg">
<path d="M48.5 11.4V7.6C48.5 5.58435 47.6571 3.65126 46.1569 2.22599C44.6566 0.800712 42.6217 0 40.5 0H24.5C22.3783 0 20.3434 0.800712 18.8431 2.22599C17.3429 3.65126 16.5 5.58435 16.5 7.6V11.4C12.2565 11.4 8.18687 13.0014 5.18629 15.852C2.18571 18.7025 0.5 22.5687 0.5 26.6V68.4C0.5 70.4156 1.34285 72.3487 2.84315 73.774C4.34344 75.1993 6.37827 76 8.5 76H56.5C58.6217 76 60.6566 75.1993 62.1569 73.774C63.6571 72.3487 64.5 70.4156 64.5 68.4V26.6C64.5 22.5687 62.8143 18.7025 59.8137 15.852C56.8131 13.0014 52.7435 11.4 48.5 11.4ZM24.5 7.6H40.5V11.4H24.5V7.6ZM32.5 26.6L40.5 34.2L32.5 41.8L24.5 34.2L32.5 26.6ZM56.5 68.4H8.5V53.2H16.5V60.8H20.5V53.2H56.5V68.4ZM56.5 49.4H8.5V26.6C8.5 24.5844 9.34285 22.6513 10.8431 21.226C12.3434 19.8007 14.3783 19 16.5 19H48.5C50.6217 19 52.6566 19.8007 54.1569 21.226C55.6571 22.6513 56.5 24.5844 56.5 26.6V49.4Z" fill="#2092CF"/>
</svg>
