<svg width="73" height="72" viewBox="0 0 73 72" fill="none" xmlns="http://www.w3.org/2000/svg">
<path d="M31.244 45.2949L23.576 37.6802L19.76 41.4697L31.208 52.8381L52.808 31.3883L48.992 27.5988L31.244 45.2949ZM36.5 64.8501C29.8165 64.8501 23.4068 62.2135 18.6809 57.5204C13.955 52.8274 11.3 46.4622 11.3 39.8252C11.3 33.1882 13.955 26.8231 18.6809 22.13C23.4068 17.4369 29.8165 14.8004 36.5 14.8004C43.1835 14.8004 49.5932 17.4369 54.3191 22.13C59.045 26.8231 61.7 33.1882 61.7 39.8252C61.7 46.4622 59.045 52.8274 54.3191 57.5204C49.5932 62.2135 43.1835 64.8501 36.5 64.8501ZM36.5 7.65045C27.907 7.65045 19.6659 11.0403 13.5897 17.0742C7.51356 23.1082 4.1 31.2919 4.1 39.8252C4.1 48.3585 7.51356 56.5423 13.5897 62.5762C19.6659 68.6102 27.907 72 36.5 72C45.093 72 53.3341 68.6102 59.4103 62.5762C65.4864 56.5423 68.9 48.3585 68.9 39.8252C68.9 31.2919 65.4864 23.1082 59.4103 17.0742C53.3341 11.0403 45.093 7.65045 36.5 7.65045ZM21.668 5.46971L17.06 0L0.5 13.7637L5.144 19.2334L21.668 5.46971ZM72.5 13.7994L55.94 0L51.296 5.46971L67.856 19.2691L72.5 13.7994Z" fill="#2092CF"/>
</svg>
