<svg width="120" height="96" viewBox="0 0 120 96" fill="none" xmlns="http://www.w3.org/2000/svg">
<mask id="path-1-outside-1_122_183" maskUnits="userSpaceOnUse" x="13" y="16" width="72" height="63" fill="black">
<rect fill="white" x="13" y="16" width="72" height="63"/>
<path d="M58.3825 67.44H39.5025L36.7025 76H18.0625L38.7825 19.36H59.2625L79.9025 76H61.1825L58.3825 67.44ZM54.0625 54.08L48.9425 38.32L43.8225 54.08H54.0625Z"/>
</mask>
<path d="M58.3825 67.44H39.5025L36.7025 76H18.0625L38.7825 19.36H59.2625L79.9025 76H61.1825L58.3825 67.44ZM54.0625 54.08L48.9425 38.32L43.8225 54.08H54.0625Z" fill="#FAFAFA"/>
<path d="M58.3825 67.44L61.2338 66.5073L60.5576 64.44H58.3825V67.44ZM39.5025 67.44V64.44H37.3274L36.6512 66.5073L39.5025 67.44ZM36.7025 76V79H38.8776L39.5538 76.9327L36.7025 76ZM18.0625 76L15.2451 74.9693L13.7706 79H18.0625V76ZM38.7825 19.36V16.36H36.6855L35.9651 18.3293L38.7825 19.36ZM59.2625 19.36L62.0812 18.3329L61.3623 16.36H59.2625V19.36ZM79.9025 76V79H84.1887L82.7212 74.9729L79.9025 76ZM61.1825 76L58.3312 76.9327L59.0074 79H61.1825V76ZM54.0625 54.08V57.08H58.1915L56.9157 53.1531L54.0625 54.08ZM48.9425 38.32L51.7957 37.3931L48.9425 28.6105L46.0893 37.3931L48.9425 38.32ZM43.8225 54.08L40.9693 53.1531L39.6935 57.08H43.8225V54.08ZM58.3825 64.44H39.5025V70.44H58.3825V64.44ZM36.6512 66.5073L33.8512 75.0673L39.5538 76.9327L42.3538 68.3727L36.6512 66.5073ZM36.7025 73H18.0625V79H36.7025V73ZM20.8799 77.0307L41.5999 20.3907L35.9651 18.3293L15.2451 74.9693L20.8799 77.0307ZM38.7825 22.36H59.2625V16.36H38.7825V22.36ZM56.4438 20.3871L77.0838 77.0271L82.7212 74.9729L62.0812 18.3329L56.4438 20.3871ZM79.9025 73H61.1825V79H79.9025V73ZM64.0338 75.0673L61.2338 66.5073L55.5312 68.3727L58.3312 76.9327L64.0338 75.0673ZM56.9157 53.1531L51.7957 37.3931L46.0893 39.2469L51.2093 55.0069L56.9157 53.1531ZM46.0893 37.3931L40.9693 53.1531L46.6757 55.0069L51.7957 39.2469L46.0893 37.3931ZM43.8225 57.08H54.0625V51.08H43.8225V57.08Z" fill="#2092CF" mask="url(#path-1-outside-1_122_183)"/>
<path d="M79.3825 67.44H60.5025L57.7025 76H39.0625L59.7825 19.36H80.2625L100.903 76H82.1825L79.3825 67.44ZM75.0625 54.08L69.9425 38.32L64.8225 54.08H75.0625Z" fill="#2092CF"/>
</svg>
